HIERARCHY
ROOT Hips
{
	OFFSET 0.000000 0.000000 0.000000
	CHANNELS 6 Xposition Yposition Zposition Yrotation Xrotation Zrotation
	JOINT Spine
	{
		OFFSET 0.000000 -0.000000 1.489414
		CHANNELS 6 Xposition Yposition Zposition Yrotation Xrotation Zrotation
		JOINT Spine1
		{
			OFFSET 0.000000 -0.000001 4.064480
			CHANNELS 6 Xposition Yposition Zposition Yrotation Xrotation Zrotation
			JOINT Neck
			{
				OFFSET 0.000000 -0.000001 4.427760
				CHANNELS 6 Xposition Yposition Zposition Yrotation Xrotation Zrotation
				JOINT Head
				{
					OFFSET 0.000000 -0.363272 2.815360
					CHANNELS 6 Xposition Yposition Zposition Yrotation Xrotation Zrotation
					End Site
					{
						OFFSET 0.000000 -0.000001 3.632711
					}
				}
			}
			JOINT LeftShoulder
			{
				OFFSET 0.731534 0.096024 3.575179
				CHANNELS 6 Xposition Yposition Zposition Yrotation Xrotation Zrotation
				JOINT LeftArm
				{
					OFFSET 2.610320 0.000000 0.000000
					CHANNELS 6 Xposition Yposition Zposition Yrotation Xrotation Zrotation
					JOINT LeftForeArm
					{
						OFFSET 5.118420 0.000000 0.000000
						CHANNELS 6 Xposition Yposition Zposition Yrotation Xrotation Zrotation
						JOINT LeftHand
						{
							OFFSET 4.756899 0.000000 0.000000
							CHANNELS 6 Xposition Yposition Zposition Yrotation Xrotation Zrotation
							End Site
							{
								OFFSET 2.724534 0.000000 0.000000
							}
						}
					}
				}
			}
			JOINT RightShoulder
			{
				OFFSET -0.721442 0.096024 3.575179
				CHANNELS 6 Xposition Yposition Zposition Yrotation Xrotation Zrotation
				JOINT RightArm
				{
					OFFSET -2.610320 0.000000 0.000000
					CHANNELS 6 Xposition Yposition Zposition Yrotation Xrotation Zrotation
					JOINT RightForeArm
					{
						OFFSET -5.118420 0.000000 0.000000
						CHANNELS 6 Xposition Yposition Zposition Yrotation Xrotation Zrotation
						JOINT RightHand
						{
							OFFSET -4.756900 0.000000 0.000000
							CHANNELS 6 Xposition Yposition Zposition Yrotation Xrotation Zrotation
							End Site
							{
								OFFSET -2.724534 0.000000 0.000000
							}
						}
					}
				}
			}
		}
	}
	JOINT LeftUpLeg
	{
		OFFSET 1.816360 0.000000 0.000000
		CHANNELS 6 Xposition Yposition Zposition Yrotation Xrotation Zrotation
		JOINT LeftLeg
		{
			OFFSET 0.000000 0.000001 -7.638980
			CHANNELS 6 Xposition Yposition Zposition Yrotation Xrotation Zrotation
			JOINT LeftFoot
			{
				OFFSET 0.000000 0.000001 -8.008600
				CHANNELS 6 Xposition Yposition Zposition Yrotation Xrotation Zrotation
				JOINT LeftToeBase
				{
					OFFSET 0.000000 -2.724540 -1.180634
					CHANNELS 6 Xposition Yposition Zposition Yrotation Xrotation Zrotation
					End Site
					{
						OFFSET 0.000000 -0.726542 0.000000
					}
				}
			}
		}
	}
	JOINT RightUpLeg
	{
		OFFSET -1.816360 0.000000 0.000000
		CHANNELS 6 Xposition Yposition Zposition Yrotation Xrotation Zrotation
		JOINT RightLeg
		{
			OFFSET 0.000000 0.000001 -7.638980
			CHANNELS 6 Xposition Yposition Zposition Yrotation Xrotation Zrotation
			JOINT RightFoot
			{
				OFFSET 0.000000 0.000001 -8.008600
				CHANNELS 6 Xposition Yposition Zposition Yrotation Xrotation Zrotation
				JOINT RightToeBase
				{
					OFFSET 0.000000 -2.724540 -1.180634
					CHANNELS 6 Xposition Yposition Zposition Yrotation Xrotation Zrotation
					End Site
					{
						OFFSET 0.000000 -0.726542 0.000000
					}
				}
			}
		}
	}
}
MOTION
Frames: 6
Frame Time: 0.016667
-2.345793 -3.676805 15.220373 -1.351878 9.127270 -0.400950 0.000000 -0.000001 1.489414 4.747571 -17.619812 -3.571487 -0.000000 -0.000001 4.064481 -12.318019 5.845723 -1.584979 0.000000 -0.000001 4.427763 -0.789881 12.502158 3.197105 0.000001 -0.363272 2.815358 7.503112 1.172436 4.538613 0.731534 0.096024 3.575181 -21.344954 -8.119337 2.807391 2.610323 0.000000 0.000005 3.749338 -9.318985 -12.912187 5.118421 -0.000000 0.000001 2.171800 -5.884599 0.441117 4.756900 -0.000001 0.000001 3.935647 -6.547184 19.463341 -0.721442 0.096024 3.575180 16.816499 1.089721 -5.479451 -2.610319 0.000000 -0.000001 0.096239 37.556895 26.584828 -5.118420 -0.000002 0.000001 33.883725 -27.295104 74.724865 -4.756900 0.000001 -0.000000 47.413817 3.843776 -11.508367 1.816360 -0.000000 -0.000000 -17.985331 -17.742250 15.967637 0.000000 0.000002 -7.638979 2.108359 22.635993 4.510753 -0.000000 0.000001 -8.008601 8.602447 -1.914901 17.967701 -0.000000 -2.724540 -1.180634 -0.000001 0.000001 0.000003 -1.816360 0.000000 -0.000000 22.827689 -22.234002 -5.495171 -0.000000 0.000002 -7.638980 -12.013112 30.345820 13.423730 0.000000 0.000002 -8.008600 -4.670022 -15.762741 -48.048557 0.000001 -2.724540 -1.180632 -0.000001 -0.000000 0.000001 
-2.347540 -3.676852 15.220293 -1.344331 9.126591 -0.408119 0.000000 -0.000001 1.489413 4.740690 -17.627808 -3.565409 0.000000 -0.000001 4.064478 -12.321243 5.850673 -1.583999 -0.000000 -0.000001 4.427762 -0.805405 12.519043 3.247303 0.000000 -0.363272 2.815364 7.510104 1.115574 4.591645 0.731533 0.096024 3.575177 -21.334552 -8.126928 2.801326 2.610321 0.000000 -0.000003 3.745338 -9.326385 -12.906353 5.118423 -0.000000 0.000002 2.185633 -5.889271 0.446010 4.756900 0.000000 -0.000000 3.885164 -6.543557 19.476868 -0.721443 0.096024 3.575177 16.821670 1.087865 -5.471946 -2.610321 -0.000000 -0.000004 0.118857 37.618247 26.574722 -5.118421 -0.000001 -0.000002 33.934507 -27.357648 74.684055 -4.756900 -0.000002 -0.000004 47.421693 3.790093 -11.489609 1.816360 0.000000 -0.000002 -17.995020 -17.733637 15.945666 0.000000 0.000002 -7.638978 2.111127 22.626931 4.534393 0.000001 0.000000 -8.008599 8.648534 -1.919028 17.975101 -0.000000 -2.724540 -1.180633 0.000001 0.000002 0.000004 -1.816360 0.000000 -0.000002 22.810202 -22.233382 -5.497717 0.000002 0.000002 -7.638980 -12.007448 30.339171 13.410879 0.000000 0.000001 -8.008599 -4.663910 -15.758114 -48.025823 -0.000000 -2.724539 -1.180631 -0.000000 -0.000002 0.000001 
-2.349255 -3.677209 15.219969 -1.344086 9.119470 -0.407934 0.000000 -0.000000 1.489414 4.742434 -17.623380 -3.565518 0.000000 -0.000001 4.064479 -12.324190 5.847203 -1.583805 -0.000001 -0.000000 4.427761 -0.814073 12.516479 3.306461 0.000000 -0.363272 2.815364 7.495105 1.089733 4.651041 0.731533 0.096025 3.575179 -21.319920 -8.134653 2.798122 2.610321 0.000000 0.000000 3.732702 -9.299859 -12.900088 5.118422 -0.000000 0.000004 2.192228 -5.896880 0.445752 4.756899 0.000001 -0.000001 3.881974 -6.550770 19.482018 -0.721443 0.096025 3.575178 16.825606 1.101274 -5.477774 -2.610322 -0.000000 0.000002 0.134754 37.613165 26.576577 -5.118419 -0.000000 -0.000001 33.931635 -27.374632 74.691773 -4.756897 0.000001 0.000003 47.427775 3.791173 -11.530163 1.816360 0.000000 -0.000000 -17.995286 -17.724083 15.921420 -0.000000 0.000001 -7.638979 2.109294 22.619237 4.518220 0.000000 0.000001 -8.008598 8.611591 -1.913334 18.005992 0.000000 -2.724540 -1.180632 -0.000000 0.000003 0.000002 -1.816360 -0.000000 0.000000 22.805667 -22.226947 -5.518684 0.000001 0.000002 -7.638980 -11.996207 30.349413 13.455410 -0.000000 0.000001 -8.008598 -4.630072 -15.753621 -48.037950 -0.000000 -2.724540 -1.180634 0.000000 0.000003 -0.000000 
-2.350664 -3.676829 15.219798 -1.334997 9.118958 -0.417286 -0.000000 -0.000000 1.489415 4.728498 -17.628232 -3.556999 -0.000000 -0.000001 4.064479 -12.323504 5.851975 -1.582184 -0.000000 -0.000001 4.427758 -0.821521 12.517616 3.357808 0.000000 -0.363272 2.815355 7.485261 1.056315 4.702333 0.731534 0.096024 3.575179 -21.323992 -8.139740 2.805931 2.610319 0.000000 -0.000004 3.745846 -9.271023 -12.901373 5.118422 -0.000001 0.000001 2.187109 -5.906455 0.441447 4.756896 0.000001 -0.000002 3.884642 -6.561260 19.493158 -0.721442 0.096024 3.575177 16.840639 1.095971 -5.473375 -2.610320 -0.000002 -0.000001 0.114791 37.599744 26.555777 -5.118419 0.000001 0.000001 33.916937 -27.365184 74.715514 -4.756899 0.000001 -0.000002 47.430251 3.806937 -11.543208 1.816360 0.000000 0.000001 -18.001773 -17.716903 15.882041 0.000000 0.000002 -7.638979 2.110485 22.605735 4.559642 0.000000 0.000001 -8.008601 8.616588 -1.914878 18.010611 -0.000001 -2.724540 -1.180632 -0.000001 0.000001 -0.000002 -1.816360 -0.000000 0.000001 22.790239 -22.243455 -5.515754 0.000001 0.000002 -7.638979 -11.999137 30.370822 13.480307 0.000001 0.000001 -8.008599 -4.633670 -15.761599 -48.059711 0.000002 -2.724539 -1.180634 0.000000 0.000000 0.000003 
-2.352300 -3.676881 15.219369 -1.338456 9.110984 -0.416666 0.000000 -0.000001 1.489413 4.734789 -17.626852 -3.555526 0.000000 -0.000001 4.064477 -12.323960 5.855386 -1.581818 -0.000000 -0.000001 4.427762 -0.836116 12.531398 3.398089 -0.000000 -0.363271 2.815357 7.483965 1.008187 4.744318 0.731533 0.096024 3.575179 -21.318014 -8.131733 2.809445 2.610322 -0.000000 0.000003 3.746555 -9.288924 -12.915042 5.118420 -0.000001 0.000002 2.189957 -5.897387 0.453111 4.756897 -0.000000 -0.000002 3.879318 -6.550776 19.484347 -0.721442 0.096023 3.575179 16.850920 1.091835 -5.467322 -2.610320 -0.000001 -0.000001 0.080749 37.577262 26.517532 -5.118420 -0.000001 -0.000001 33.912501 -27.347207 74.741865 -4.756899 0.000002 -0.000002 47.384335 3.832767 -11.546825 1.816360 -0.000000 -0.000001 -17.980330 -17.713995 15.935830 0.000000 0.000002 -7.638981 2.039328 22.603620 4.548443 -0.000000 0.000001 -8.008600 8.641319 -1.900570 17.947232 0.000000 -2.724540 -1.180631 0.000001 0.000002 0.000001 -1.816360 -0.000000 0.000001 22.794380 -22.245530 -5.533424 -0.000000 0.000003 -7.638980 -12.003467 30.393546 13.475127 -0.000000 0.000000 -8.008600 -4.630978 -15.773557 -48.044684 0.000001 -2.724540 -1.180632 -0.000001 0.000001 0.000000 
-2.353557 -3.676974 15.219103 -1.336221 9.103638 -0.422151 -0.000000 -0.000000 1.489415 4.730845 -17.628057 -3.549517 0.000000 -0.000001 4.064479 -12.321158 5.862946 -1.580688 0.000000 -0.000001 4.427764 -0.859167 12.522617 3.429173 0.000001 -0.363272 2.815360 7.492928 0.998300 4.782516 0.731534 0.096024 3.575185 -21.330088 -8.145482 2.812470 2.610319 0.000000 -0.000003 3.766956 -9.297871 -12.916393 5.118421 0.000000 -0.000001 2.193150 -5.871743 0.458344 4.756902 0.000001 -0.000002 3.891182 -6.526880 19.478661 -0.721442 0.096024 3.575181 16.856705 1.087328 -5.459269 -2.610321 -0.000001 0.000004 0.073672 37.594297 26.497581 -5.118420 0.000000 0.000001 33.924928 -27.366258 74.734099 -4.756899 0.000003 0.000003 47.415457 3.836509 -11.579586 1.816360 -0.000000 0.000001 -17.984344 -17.701981 15.947588 -0.000000 0.000002 -7.638980 2.030067 22.603331 4.484654 -0.000000 0.000000 -8.008599 8.687039 -1.920523 18.001179 -0.000001 -2.724540 -1.180634 -0.000001 -0.000002 -0.000003 -1.816360 -0.000000 0.000001 22.793545 -22.237376 -5.537348 0.000001 0.000002 -7.638979 -12.012191 30.391736 13.512757 -0.000001 0.000000 -8.008597 -4.595805 -15.765890 -48.064342 0.000000 -2.724540 -1.180634 -0.000000 0.000001 0.000004 
